<svg width="20" height="24" viewBox="0 0 20 24" fill="none" xmlns="http://www.w3.org/2000/svg">
<path d="M10 0C7.3488 0.00297726 4.8071 0.997296 2.93242 2.76485C1.05774 4.5324 0.00315771 6.92886 0 9.42855C0 17.4961 9.09091 23.5898 9.47796 23.8451C9.63104 23.9459 9.81327 24 10 24C10.1867 24 10.369 23.9459 10.522 23.8451C10.9091 23.5898 20 17.4961 20 9.42855C19.9968 6.92886 18.9423 4.5324 17.0676 2.76485C15.1929 0.997296 12.6512 0.00297726 10 0ZM10.0007 6.00031C10.7199 6.00031 11.4229 6.20139 12.0209 6.57813C12.6189 6.95486 13.085 7.49033 13.3602 8.11682C13.6355 8.74331 13.7075 9.43268 13.5672 10.0978C13.4269 10.7628 13.0805 11.3737 12.572 11.8532C12.0634 12.3327 11.4155 12.6593 10.7101 12.7916C10.0047 12.9239 9.27356 12.856 8.60911 12.5965C7.94465 12.337 7.37673 11.8975 6.97716 11.3337C6.57759 10.7699 6.36432 10.107 6.36432 9.42887C6.36432 8.51956 6.74743 7.64749 7.42939 7.00451C8.11134 6.36153 9.03626 6.00031 10.0007 6.00031Z" fill="#2AC28B"/>
</svg>
