<svg xmlns="http://www.w3.org/2000/svg" version="1.1" xmlns:xlink="http://www.w3.org/1999/xlink" xmlns:svgjs="http://svgjs.com/svgjs" width="1440" height="566" preserveAspectRatio="none" viewBox="0 0 1440 566">
    <g mask="url(&quot;#SvgjsMask1365&quot;)" fill="none">
        <rect width="1440" height="566" x="0" y="0" fill="rgba(52, 203, 121, 1)"></rect>
        <path d="M-97.38 352.23L-97.38 352.23" stroke="rgba(33, 82, 182, 1)" stroke-width="1.5"></path>
        <path d="M-97.38 352.23L-39.24 495.63" stroke="rgba(33, 82, 182, 1)" stroke-width="1.5"></path>
        <path d="M-97.38 352.23L99.95 355.86" stroke="rgba(33, 82, 182, 1)" stroke-width="1.5"></path>
        <path d="M-97.38 352.23L49.48 516.67" stroke="rgba(33, 82, 182, 1)" stroke-width="1.5"></path>
        <path d="M-97.38 352.23L-103.74 658.13" stroke="rgba(33, 82, 182, 1)" stroke-width="1.5"></path>
        <path d="M-39.24 495.63L-39.24 495.63" stroke="rgba(33, 82, 182, 1)" stroke-width="1.5"></path>
        <path d="M-39.24 495.63L49.48 516.67" stroke="rgba(33, 82, 182, 1)" stroke-width="1.5"></path>
        <path d="M-39.24 495.63L-103.74 658.13" stroke="rgba(33, 82, 182, 1)" stroke-width="1.5"></path>
        <path d="M-39.24 495.63L99.95 355.86" stroke="rgba(33, 82, 182, 1)" stroke-width="1.5"></path>
        <path d="M-39.24 495.63L189.33 537.14" stroke="rgba(33, 82, 182, 1)" stroke-width="1.5"></path>
        <path d="M-39.24 495.63L104.43 690.43" stroke="rgba(33, 82, 182, 1)" stroke-width="1.5"></path>
        <path d="M-103.74 658.13L-103.74 658.13" stroke="rgba(33, 82, 182, 1)" stroke-width="1.5"></path>
        <path d="M-103.74 658.13L49.48 516.67" stroke="rgba(33, 82, 182, 1)" stroke-width="1.5"></path>
        <path d="M-103.74 658.13L104.43 690.43" stroke="rgba(33, 82, 182, 1)" stroke-width="1.5"></path>
        <path d="M99.95 355.86L99.95 355.86" stroke="rgba(33, 82, 182, 1)" stroke-width="1.5"></path>
        <path d="M99.95 355.86L257.96 389.82" stroke="rgba(33, 82, 182, 1)" stroke-width="1.5"></path>
        <path d="M99.95 355.86L49.48 516.67" stroke="rgba(33, 82, 182, 1)" stroke-width="1.5"></path>
        <path d="M99.95 355.86L189.33 537.14" stroke="rgba(33, 82, 182, 1)" stroke-width="1.5"></path>
        <path d="M99.95 355.86L341.77 503.27" stroke="rgba(33, 82, 182, 1)" stroke-width="1.5"></path>
        <path d="M49.48 516.67L49.48 516.67" stroke="rgba(33, 82, 182, 1)" stroke-width="1.5"></path>
        <path d="M49.48 516.67L189.33 537.14" stroke="rgba(33, 82, 182, 1)" stroke-width="1.5"></path>
        <path d="M104.43 690.43L104.43 690.43" stroke="rgba(33, 82, 182, 1)" stroke-width="1.5"></path>
        <path d="M104.43 690.43L208.29 659.18" stroke="rgba(33, 82, 182, 1)" stroke-width="1.5"></path>
        <path d="M257.96 389.82L257.96 389.82" stroke="rgba(33, 82, 182, 1)" stroke-width="1.5"></path>
        <path d="M257.96 389.82L386.73 379.61" stroke="rgba(33, 82, 182, 1)" stroke-width="1.5"></path>
        <path d="M257.96 389.82L341.77 503.27" stroke="rgba(33, 82, 182, 1)" stroke-width="1.5"></path>
        <path d="M189.33 537.14L189.33 537.14" stroke="rgba(33, 82, 182, 1)" stroke-width="1.5"></path>
        <path d="M189.33 537.14L208.29 659.18" stroke="rgba(33, 82, 182, 1)" stroke-width="1.5"></path>
        <path d="M189.33 537.14L341.77 503.27" stroke="rgba(33, 82, 182, 1)" stroke-width="1.5"></path>
        <path d="M208.29 659.18L208.29 659.18" stroke="rgba(33, 82, 182, 1)" stroke-width="1.5"></path>
        <path d="M208.29 659.18L403.35 706.83" stroke="rgba(33, 82, 182, 1)" stroke-width="1.5"></path>
        <path d="M208.29 659.18L341.77 503.27" stroke="rgba(33, 82, 182, 1)" stroke-width="1.5"></path>
        <path d="M208.29 659.18L49.48 516.67" stroke="rgba(33, 82, 182, 1)" stroke-width="1.5"></path>
        <path d="M208.29 659.18L257.96 389.82" stroke="rgba(33, 82, 182, 1)" stroke-width="1.5"></path>
        <path d="M386.73 379.61L386.73 379.61" stroke="rgba(33, 82, 182, 1)" stroke-width="1.5"></path>
        <path d="M386.73 379.61L341.77 503.27" stroke="rgba(33, 82, 182, 1)" stroke-width="1.5"></path>
        <path d="M386.73 379.61L527.69 517.71" stroke="rgba(33, 82, 182, 1)" stroke-width="1.5"></path>
        <path d="M341.77 503.27L341.77 503.27" stroke="rgba(33, 82, 182, 1)" stroke-width="1.5"></path>
        <path d="M341.77 503.27L527.69 517.71" stroke="rgba(33, 82, 182, 1)" stroke-width="1.5"></path>
        <path d="M403.35 706.83L403.35 706.83" stroke="rgba(33, 82, 182, 1)" stroke-width="1.5"></path>
        <path d="M403.35 706.83L547.27 667.48" stroke="rgba(33, 82, 182, 1)" stroke-width="1.5"></path>
        <path d="M403.35 706.83L341.77 503.27" stroke="rgba(33, 82, 182, 1)" stroke-width="1.5"></path>
        <path d="M403.35 706.83L527.69 517.71" stroke="rgba(33, 82, 182, 1)" stroke-width="1.5"></path>
        <path d="M527.69 517.71L527.69 517.71" stroke="rgba(33, 82, 182, 1)" stroke-width="1.5"></path>
        <path d="M527.69 517.71L547.27 667.48" stroke="rgba(33, 82, 182, 1)" stroke-width="1.5"></path>
        <path d="M527.69 517.71L682.14 513.22" stroke="rgba(33, 82, 182, 1)" stroke-width="1.5"></path>
        <path d="M547.27 667.48L547.27 667.48" stroke="rgba(33, 82, 182, 1)" stroke-width="1.5"></path>
        <path d="M547.27 667.48L661.53 711.48" stroke="rgba(33, 82, 182, 1)" stroke-width="1.5"></path>
        <path d="M677.23 225.33L677.23 225.33" stroke="rgba(33, 82, 182, 1)" stroke-width="1.5"></path>
        <path d="M677.23 225.33L688.64 357.27" stroke="rgba(33, 82, 182, 1)" stroke-width="1.5"></path>
        <path d="M677.23 225.33L853.43 216.61" stroke="rgba(33, 82, 182, 1)" stroke-width="1.5"></path>
        <path d="M677.23 225.33L787.76 365.79" stroke="rgba(33, 82, 182, 1)" stroke-width="1.5"></path>
        <path d="M688.64 357.27L688.64 357.27" stroke="rgba(33, 82, 182, 1)" stroke-width="1.5"></path>
        <path d="M688.64 357.27L787.76 365.79" stroke="rgba(33, 82, 182, 1)" stroke-width="1.5"></path>
        <path d="M682.14 513.22L682.14 513.22" stroke="rgba(33, 82, 182, 1)" stroke-width="1.5"></path>
        <path d="M682.14 513.22L798.52 493.65" stroke="rgba(33, 82, 182, 1)" stroke-width="1.5"></path>
        <path d="M682.14 513.22L688.64 357.27" stroke="rgba(33, 82, 182, 1)" stroke-width="1.5"></path>
        <path d="M682.14 513.22L787.76 365.79" stroke="rgba(33, 82, 182, 1)" stroke-width="1.5"></path>
        <path d="M682.14 513.22L661.53 711.48" stroke="rgba(33, 82, 182, 1)" stroke-width="1.5"></path>
        <path d="M661.53 711.48L661.53 711.48" stroke="rgba(33, 82, 182, 1)" stroke-width="1.5"></path>
        <path d="M661.53 711.48L841.58 685.79" stroke="rgba(33, 82, 182, 1)" stroke-width="1.5"></path>
        <path d="M661.53 711.48L527.69 517.71" stroke="rgba(33, 82, 182, 1)" stroke-width="1.5"></path>
        <path d="M661.53 711.48L798.52 493.65" stroke="rgba(33, 82, 182, 1)" stroke-width="1.5"></path>
        <path d="M661.53 711.48L403.35 706.83" stroke="rgba(33, 82, 182, 1)" stroke-width="1.5"></path>
        <path d="M853.43 216.61L853.43 216.61" stroke="rgba(33, 82, 182, 1)" stroke-width="1.5"></path>
        <path d="M853.43 216.61L985.32 235.49" stroke="rgba(33, 82, 182, 1)" stroke-width="1.5"></path>
        <path d="M853.43 216.61L787.76 365.79" stroke="rgba(33, 82, 182, 1)" stroke-width="1.5"></path>
        <path d="M853.43 216.61L1005.66 352.22" stroke="rgba(33, 82, 182, 1)" stroke-width="1.5"></path>
        <path d="M853.43 216.61L1007.67 70.42" stroke="rgba(33, 82, 182, 1)" stroke-width="1.5"></path>
        <path d="M787.76 365.79L787.76 365.79" stroke="rgba(33, 82, 182, 1)" stroke-width="1.5"></path>
        <path d="M787.76 365.79L798.52 493.65" stroke="rgba(33, 82, 182, 1)" stroke-width="1.5"></path>
        <path d="M787.76 365.79L1005.66 352.22" stroke="rgba(33, 82, 182, 1)" stroke-width="1.5"></path>
        <path d="M798.52 493.65L798.52 493.65" stroke="rgba(33, 82, 182, 1)" stroke-width="1.5"></path>
        <path d="M798.52 493.65L970.56 502.84" stroke="rgba(33, 82, 182, 1)" stroke-width="1.5"></path>
        <path d="M798.52 493.65L688.64 357.27" stroke="rgba(33, 82, 182, 1)" stroke-width="1.5"></path>
        <path d="M841.58 685.79L841.58 685.79" stroke="rgba(33, 82, 182, 1)" stroke-width="1.5"></path>
        <path d="M841.58 685.79L951.73 687.77" stroke="rgba(33, 82, 182, 1)" stroke-width="1.5"></path>
        <path d="M841.58 685.79L798.52 493.65" stroke="rgba(33, 82, 182, 1)" stroke-width="1.5"></path>
        <path d="M841.58 685.79L970.56 502.84" stroke="rgba(33, 82, 182, 1)" stroke-width="1.5"></path>
        <path d="M960.51 -67L960.51 -67" stroke="rgba(33, 82, 182, 1)" stroke-width="1.5"></path>
        <path d="M960.51 -67L1091.28 -73.78" stroke="rgba(33, 82, 182, 1)" stroke-width="1.5"></path>
        <path d="M1007.67 70.42L1007.67 70.42" stroke="rgba(33, 82, 182, 1)" stroke-width="1.5"></path>
        <path d="M1007.67 70.42L1126.43 56.89" stroke="rgba(33, 82, 182, 1)" stroke-width="1.5"></path>
        <path d="M1007.67 70.42L960.51 -67" stroke="rgba(33, 82, 182, 1)" stroke-width="1.5"></path>
        <path d="M1007.67 70.42L985.32 235.49" stroke="rgba(33, 82, 182, 1)" stroke-width="1.5"></path>
        <path d="M1007.67 70.42L1091.28 -73.78" stroke="rgba(33, 82, 182, 1)" stroke-width="1.5"></path>
        <path d="M1007.67 70.42L1138.99 197.05" stroke="rgba(33, 82, 182, 1)" stroke-width="1.5"></path>
        <path d="M985.32 235.49L985.32 235.49" stroke="rgba(33, 82, 182, 1)" stroke-width="1.5"></path>
        <path d="M985.32 235.49L1005.66 352.22" stroke="rgba(33, 82, 182, 1)" stroke-width="1.5"></path>
        <path d="M1005.66 352.22L1005.66 352.22" stroke="rgba(33, 82, 182, 1)" stroke-width="1.5"></path>
        <path d="M970.56 502.84L970.56 502.84" stroke="rgba(33, 82, 182, 1)" stroke-width="1.5"></path>
        <path d="M970.56 502.84L1005.66 352.22" stroke="rgba(33, 82, 182, 1)" stroke-width="1.5"></path>
        <path d="M970.56 502.84L951.73 687.77" stroke="rgba(33, 82, 182, 1)" stroke-width="1.5"></path>
        <path d="M970.56 502.84L1127.12 654.78" stroke="rgba(33, 82, 182, 1)" stroke-width="1.5"></path>
        <path d="M970.56 502.84L787.76 365.79" stroke="rgba(33, 82, 182, 1)" stroke-width="1.5"></path>
        <path d="M951.73 687.77L951.73 687.77" stroke="rgba(33, 82, 182, 1)" stroke-width="1.5"></path>
        <path d="M951.73 687.77L1127.12 654.78" stroke="rgba(33, 82, 182, 1)" stroke-width="1.5"></path>
        <path d="M951.73 687.77L798.52 493.65" stroke="rgba(33, 82, 182, 1)" stroke-width="1.5"></path>
        <path d="M951.73 687.77L661.53 711.48" stroke="rgba(33, 82, 182, 1)" stroke-width="1.5"></path>
        <path d="M951.73 687.77L682.14 513.22" stroke="rgba(33, 82, 182, 1)" stroke-width="1.5"></path>
        <path d="M1091.28 -73.78L1091.28 -73.78" stroke="rgba(33, 82, 182, 1)" stroke-width="1.5"></path>
        <path d="M1091.28 -73.78L1126.43 56.89" stroke="rgba(33, 82, 182, 1)" stroke-width="1.5"></path>
        <path d="M1126.43 56.89L1126.43 56.89" stroke="rgba(33, 82, 182, 1)" stroke-width="1.5"></path>
        <path d="M1126.43 56.89L1253.92 38.57" stroke="rgba(33, 82, 182, 1)" stroke-width="1.5"></path>
        <path d="M1138.99 197.05L1138.99 197.05" stroke="rgba(33, 82, 182, 1)" stroke-width="1.5"></path>
        <path d="M1138.99 197.05L1126.43 56.89" stroke="rgba(33, 82, 182, 1)" stroke-width="1.5"></path>
        <path d="M1138.99 197.05L985.32 235.49" stroke="rgba(33, 82, 182, 1)" stroke-width="1.5"></path>
        <path d="M1127.12 654.78L1127.12 654.78" stroke="rgba(33, 82, 182, 1)" stroke-width="1.5"></path>
        <path d="M1127.12 654.78L1283.44 640.74" stroke="rgba(33, 82, 182, 1)" stroke-width="1.5"></path>
        <path d="M1127.12 654.78L1273.17 493.48" stroke="rgba(33, 82, 182, 1)" stroke-width="1.5"></path>
        <path d="M1265.75 -47.38L1265.75 -47.38" stroke="rgba(33, 82, 182, 1)" stroke-width="1.5"></path>
        <path d="M1265.75 -47.38L1253.92 38.57" stroke="rgba(33, 82, 182, 1)" stroke-width="1.5"></path>
        <path d="M1265.75 -47.38L1126.43 56.89" stroke="rgba(33, 82, 182, 1)" stroke-width="1.5"></path>
        <path d="M1253.92 38.57L1253.92 38.57" stroke="rgba(33, 82, 182, 1)" stroke-width="1.5"></path>
        <path d="M1252.53 350.83L1252.53 350.83" stroke="rgba(33, 82, 182, 1)" stroke-width="1.5"></path>
        <path d="M1252.53 350.83L1273.17 493.48" stroke="rgba(33, 82, 182, 1)" stroke-width="1.5"></path>
        <path d="M1252.53 350.83L1138.99 197.05" stroke="rgba(33, 82, 182, 1)" stroke-width="1.5"></path>
        <path d="M1273.17 493.48L1273.17 493.48" stroke="rgba(33, 82, 182, 1)" stroke-width="1.5"></path>
        <path d="M1273.17 493.48L1283.44 640.74" stroke="rgba(33, 82, 182, 1)" stroke-width="1.5"></path>
        <path d="M1273.17 493.48L1436.37 552.99" stroke="rgba(33, 82, 182, 1)" stroke-width="1.5"></path>
        <path d="M1273.17 493.48L1445.93 357.23" stroke="rgba(33, 82, 182, 1)" stroke-width="1.5"></path>
        <path d="M1283.44 640.74L1283.44 640.74" stroke="rgba(33, 82, 182, 1)" stroke-width="1.5"></path>
        <path d="M1283.44 640.74L1455.86 663.52" stroke="rgba(33, 82, 182, 1)" stroke-width="1.5"></path>
        <path d="M1283.44 640.74L1436.37 552.99" stroke="rgba(33, 82, 182, 1)" stroke-width="1.5"></path>
        <path d="M1457.04 -100.67L1457.04 -100.67" stroke="rgba(33, 82, 182, 1)" stroke-width="1.5"></path>
        <path d="M1457.04 -100.67L1577.29 -63.28" stroke="rgba(33, 82, 182, 1)" stroke-width="1.5"></path>
        <path d="M1457.04 -100.67L1409.49 83.08" stroke="rgba(33, 82, 182, 1)" stroke-width="1.5"></path>
        <path d="M1457.04 -100.67L1265.75 -47.38" stroke="rgba(33, 82, 182, 1)" stroke-width="1.5"></path>
        <path d="M1409.49 83.08L1409.49 83.08" stroke="rgba(33, 82, 182, 1)" stroke-width="1.5"></path>
        <path d="M1409.49 83.08L1458.51 211.17" stroke="rgba(33, 82, 182, 1)" stroke-width="1.5"></path>
        <path d="M1458.51 211.17L1458.51 211.17" stroke="rgba(33, 82, 182, 1)" stroke-width="1.5"></path>
        <path d="M1458.51 211.17L1596.79 202.53" stroke="rgba(33, 82, 182, 1)" stroke-width="1.5"></path>
        <path d="M1458.51 211.17L1445.93 357.23" stroke="rgba(33, 82, 182, 1)" stroke-width="1.5"></path>
        <path d="M1458.51 211.17L1587.78 377.64" stroke="rgba(33, 82, 182, 1)" stroke-width="1.5"></path>
        <path d="M1458.51 211.17L1603.28 39.99" stroke="rgba(33, 82, 182, 1)" stroke-width="1.5"></path>
        <path d="M1458.51 211.17L1252.53 350.83" stroke="rgba(33, 82, 182, 1)" stroke-width="1.5"></path>
        <path d="M1445.93 357.23L1445.93 357.23" stroke="rgba(33, 82, 182, 1)" stroke-width="1.5"></path>
        <path d="M1445.93 357.23L1587.78 377.64" stroke="rgba(33, 82, 182, 1)" stroke-width="1.5"></path>
        <path d="M1445.93 357.23L1543.19 516.56" stroke="rgba(33, 82, 182, 1)" stroke-width="1.5"></path>
        <path d="M1436.37 552.99L1436.37 552.99" stroke="rgba(33, 82, 182, 1)" stroke-width="1.5"></path>
        <path d="M1436.37 552.99L1455.86 663.52" stroke="rgba(33, 82, 182, 1)" stroke-width="1.5"></path>
        <path d="M1436.37 552.99L1543.19 516.56" stroke="rgba(33, 82, 182, 1)" stroke-width="1.5"></path>
        <path d="M1436.37 552.99L1445.93 357.23" stroke="rgba(33, 82, 182, 1)" stroke-width="1.5"></path>
        <path d="M1455.86 663.52L1455.86 663.52" stroke="rgba(33, 82, 182, 1)" stroke-width="1.5"></path>
        <path d="M1455.86 663.52L1607.33 708.07" stroke="rgba(33, 82, 182, 1)" stroke-width="1.5"></path>
        <path d="M1455.86 663.52L1543.19 516.56" stroke="rgba(33, 82, 182, 1)" stroke-width="1.5"></path>
        <path d="M1455.86 663.52L1273.17 493.48" stroke="rgba(33, 82, 182, 1)" stroke-width="1.5"></path>
        <path d="M1455.86 663.52L1445.93 357.23" stroke="rgba(33, 82, 182, 1)" stroke-width="1.5"></path>
        <path d="M1577.29 -63.28L1577.29 -63.28" stroke="rgba(33, 82, 182, 1)" stroke-width="1.5"></path>
        <path d="M1577.29 -63.28L1603.28 39.99" stroke="rgba(33, 82, 182, 1)" stroke-width="1.5"></path>
        <path d="M1577.29 -63.28L1409.49 83.08" stroke="rgba(33, 82, 182, 1)" stroke-width="1.5"></path>
        <path d="M1603.28 39.99L1603.28 39.99" stroke="rgba(33, 82, 182, 1)" stroke-width="1.5"></path>
        <path d="M1603.28 39.99L1596.79 202.53" stroke="rgba(33, 82, 182, 1)" stroke-width="1.5"></path>
        <path d="M1603.28 39.99L1409.49 83.08" stroke="rgba(33, 82, 182, 1)" stroke-width="1.5"></path>
        <path d="M1603.28 39.99L1457.04 -100.67" stroke="rgba(33, 82, 182, 1)" stroke-width="1.5"></path>
        <path d="M1596.79 202.53L1596.79 202.53" stroke="rgba(33, 82, 182, 1)" stroke-width="1.5"></path>
        <path d="M1596.79 202.53L1587.78 377.64" stroke="rgba(33, 82, 182, 1)" stroke-width="1.5"></path>
        <path d="M1596.79 202.53L1445.93 357.23" stroke="rgba(33, 82, 182, 1)" stroke-width="1.5"></path>
        <path d="M1596.79 202.53L1409.49 83.08" stroke="rgba(33, 82, 182, 1)" stroke-width="1.5"></path>
        <path d="M1596.79 202.53L1577.29 -63.28" stroke="rgba(33, 82, 182, 1)" stroke-width="1.5"></path>
        <path d="M1587.78 377.64L1587.78 377.64" stroke="rgba(33, 82, 182, 1)" stroke-width="1.5"></path>
        <path d="M1587.78 377.64L1543.19 516.56" stroke="rgba(33, 82, 182, 1)" stroke-width="1.5"></path>
        <path d="M1543.19 516.56L1543.19 516.56" stroke="rgba(33, 82, 182, 1)" stroke-width="1.5"></path>
        <path d="M1607.33 708.07L1607.33 708.07" stroke="rgba(33, 82, 182, 1)" stroke-width="1.5"></path>
        <path d="M1607.33 708.07L1543.19 516.56" stroke="rgba(33, 82, 182, 1)" stroke-width="1.5"></path>
        <path d="M1607.33 708.07L1436.37 552.99" stroke="rgba(33, 82, 182, 1)" stroke-width="1.5"></path>
        <path d="M1607.33 708.07L1283.44 640.74" stroke="rgba(33, 82, 182, 1)" stroke-width="1.5"></path>
        <path d="M1607.33 708.07L1587.78 377.64" stroke="rgba(33, 82, 182, 1)" stroke-width="1.5"></path>
        <path d="M1607.33 708.07L1445.93 357.23" stroke="rgba(33, 82, 182, 1)" stroke-width="1.5"></path>
        <circle r="5" cx="-97.38" cy="352.23" fill="rgba(33, 82, 182, 1)"></circle>
        <circle r="5" cx="-39.24" cy="495.63" fill="rgba(33, 82, 182, 1)"></circle>
        <circle r="5" cx="-103.74" cy="658.13" fill="rgba(33, 82, 182, 1)"></circle>
        <circle r="5" cx="99.95" cy="355.86" fill="rgba(33, 82, 182, 1)"></circle>
        <circle r="5" cx="49.48" cy="516.67" fill="rgba(33, 82, 182, 1)"></circle>
        <circle r="5" cx="104.43" cy="690.43" fill="rgba(33, 82, 182, 1)"></circle>
        <circle r="5" cx="257.96" cy="389.82" fill="rgba(33, 82, 182, 1)"></circle>
        <circle r="5" cx="189.33" cy="537.14" fill="rgba(33, 82, 182, 1)"></circle>
        <circle r="5" cx="208.29" cy="659.18" fill="rgba(33, 82, 182, 1)"></circle>
        <circle r="5" cx="386.73" cy="379.61" fill="rgba(33, 82, 182, 1)"></circle>
        <circle r="5" cx="341.77" cy="503.27" fill="rgba(33, 82, 182, 1)"></circle>
        <circle r="5" cx="403.35" cy="706.83" fill="rgba(33, 82, 182, 1)"></circle>
        <circle r="5" cx="527.69" cy="517.71" fill="rgba(33, 82, 182, 1)"></circle>
        <circle r="5" cx="547.27" cy="667.48" fill="rgba(33, 82, 182, 1)"></circle>
        <circle r="5" cx="677.23" cy="225.33" fill="rgba(33, 82, 182, 1)"></circle>
        <circle r="5" cx="688.64" cy="357.27" fill="rgba(33, 82, 182, 1)"></circle>
        <circle r="5" cx="682.14" cy="513.22" fill="rgba(33, 82, 182, 1)"></circle>
        <circle r="5" cx="661.53" cy="711.48" fill="rgba(33, 82, 182, 1)"></circle>
        <circle r="5" cx="853.43" cy="216.61" fill="rgba(33, 82, 182, 1)"></circle>
        <circle r="5" cx="787.76" cy="365.79" fill="rgba(33, 82, 182, 1)"></circle>
        <circle r="5" cx="798.52" cy="493.65" fill="rgba(33, 82, 182, 1)"></circle>
        <circle r="5" cx="841.58" cy="685.79" fill="rgba(33, 82, 182, 1)"></circle>
        <circle r="5" cx="960.51" cy="-67" fill="rgba(33, 82, 182, 1)"></circle>
        <circle r="5" cx="1007.67" cy="70.42" fill="rgba(33, 82, 182, 1)"></circle>
        <circle r="5" cx="985.32" cy="235.49" fill="rgba(33, 82, 182, 1)"></circle>
        <circle r="5" cx="1005.66" cy="352.22" fill="rgba(33, 82, 182, 1)"></circle>
        <circle r="5" cx="970.56" cy="502.84" fill="rgba(33, 82, 182, 1)"></circle>
        <circle r="5" cx="951.73" cy="687.77" fill="rgba(33, 82, 182, 1)"></circle>
        <circle r="5" cx="1091.28" cy="-73.78" fill="rgba(33, 82, 182, 1)"></circle>
        <circle r="5" cx="1126.43" cy="56.89" fill="rgba(33, 82, 182, 1)"></circle>
        <circle r="5" cx="1138.99" cy="197.05" fill="rgba(33, 82, 182, 1)"></circle>
        <circle r="5" cx="1127.12" cy="654.78" fill="rgba(33, 82, 182, 1)"></circle>
        <circle r="5" cx="1265.75" cy="-47.38" fill="rgba(33, 82, 182, 1)"></circle>
        <circle r="5" cx="1253.92" cy="38.57" fill="rgba(33, 82, 182, 1)"></circle>
        <circle r="5" cx="1252.53" cy="350.83" fill="rgba(33, 82, 182, 1)"></circle>
        <circle r="5" cx="1273.17" cy="493.48" fill="rgba(33, 82, 182, 1)"></circle>
        <circle r="5" cx="1283.44" cy="640.74" fill="rgba(33, 82, 182, 1)"></circle>
        <circle r="5" cx="1457.04" cy="-100.67" fill="rgba(33, 82, 182, 1)"></circle>
        <circle r="5" cx="1409.49" cy="83.08" fill="rgba(33, 82, 182, 1)"></circle>
        <circle r="5" cx="1458.51" cy="211.17" fill="rgba(33, 82, 182, 1)"></circle>
        <circle r="5" cx="1445.93" cy="357.23" fill="rgba(33, 82, 182, 1)"></circle>
        <circle r="5" cx="1436.37" cy="552.99" fill="rgba(33, 82, 182, 1)"></circle>
        <circle r="5" cx="1455.86" cy="663.52" fill="rgba(33, 82, 182, 1)"></circle>
        <circle r="5" cx="1577.29" cy="-63.28" fill="rgba(33, 82, 182, 1)"></circle>
        <circle r="5" cx="1603.28" cy="39.99" fill="rgba(33, 82, 182, 1)"></circle>
        <circle r="5" cx="1596.79" cy="202.53" fill="rgba(33, 82, 182, 1)"></circle>
        <circle r="5" cx="1587.78" cy="377.64" fill="rgba(33, 82, 182, 1)"></circle>
        <circle r="5" cx="1543.19" cy="516.56" fill="rgba(33, 82, 182, 1)"></circle>
        <circle r="5" cx="1607.33" cy="708.07" fill="rgba(33, 82, 182, 1)"></circle>
        <path d="M349.58 546L349.58 546" stroke="hsl(0, 0%, 100%)" stroke-width="1.5"></path>
        <path d="M349.58 546L231.4 501.71" stroke="hsl(0, 0%, 100%)" stroke-width="1.5"></path>
        <path d="M349.58 546L247.6 681.05" stroke="hsl(0, 0%, 100%)" stroke-width="1.5"></path>
        <path d="M349.58 546L518.77 510.58" stroke="hsl(0, 0%, 100%)" stroke-width="1.5"></path>
        <path d="M349.58 546L538.03 704.4" stroke="hsl(0, 0%, 100%)" stroke-width="1.5"></path>
        <path d="M349.58 546L87.57 508.09" stroke="hsl(0, 0%, 100%)" stroke-width="1.5"></path>
        <path d="M709.96 546.02L709.96 546.02" stroke="hsl(0, 0%, 100%)" stroke-width="1.5"></path>
        <path d="M709.96 546.02L821.31 514.62" stroke="hsl(0, 0%, 100%)" stroke-width="1.5"></path>
        <path d="M709.96 546.02L673.96 672.2" stroke="hsl(0, 0%, 100%)" stroke-width="1.5"></path>
        <path d="M709.96 546.02L826.09 643.79" stroke="hsl(0, 0%, 100%)" stroke-width="1.5"></path>
        <path d="M1306.52 83.47L1306.52 83.47" stroke="hsl(0, 0%, 100%)" stroke-width="1.5"></path>
        <path d="M1306.52 83.47L1389.57 56.59" stroke="hsl(0, 0%, 100%)" stroke-width="1.5"></path>
        <path d="M1306.52 83.47L1258.04 201.65" stroke="hsl(0, 0%, 100%)" stroke-width="1.5"></path>
        <path d="M1306.52 83.47L1424.58 -43.93" stroke="hsl(0, 0%, 100%)" stroke-width="1.5"></path>
        <path d="M1306.52 83.47L1251.05 -81.98" stroke="hsl(0, 0%, 100%)" stroke-width="1.5"></path>
        <path d="M-101.15 521.81L-101.15 521.81" stroke="hsl(0, 0%, 100%)" stroke-width="1.5"></path>
        <path d="M-101.15 521.81L87.57 508.09" stroke="hsl(0, 0%, 100%)" stroke-width="1.5"></path>
        <path d="M-101.15 521.81L75.23 683.88" stroke="hsl(0, 0%, 100%)" stroke-width="1.5"></path>
        <path d="M-101.15 521.81L231.4 501.71" stroke="hsl(0, 0%, 100%)" stroke-width="1.5"></path>
        <path d="M-101.15 521.81L247.6 681.05" stroke="hsl(0, 0%, 100%)" stroke-width="1.5"></path>
        <path d="M-101.15 521.81L349.58 546" stroke="hsl(0, 0%, 100%)" stroke-width="1.5"></path>
        <path d="M87.57 508.09L87.57 508.09" stroke="hsl(0, 0%, 100%)" stroke-width="1.5"></path>
        <path d="M87.57 508.09L231.4 501.71" stroke="hsl(0, 0%, 100%)" stroke-width="1.5"></path>
        <path d="M87.57 508.09L75.23 683.88" stroke="hsl(0, 0%, 100%)" stroke-width="1.5"></path>
        <path d="M75.23 683.88L75.23 683.88" stroke="hsl(0, 0%, 100%)" stroke-width="1.5"></path>
        <path d="M75.23 683.88L247.6 681.05" stroke="hsl(0, 0%, 100%)" stroke-width="1.5"></path>
        <path d="M75.23 683.88L231.4 501.71" stroke="hsl(0, 0%, 100%)" stroke-width="1.5"></path>
        <path d="M75.23 683.88L349.58 546" stroke="hsl(0, 0%, 100%)" stroke-width="1.5"></path>
        <path d="M75.23 683.88L538.03 704.4" stroke="hsl(0, 0%, 100%)" stroke-width="1.5"></path>
        <path d="M231.4 501.71L231.4 501.71" stroke="hsl(0, 0%, 100%)" stroke-width="1.5"></path>
        <path d="M231.4 501.71L247.6 681.05" stroke="hsl(0, 0%, 100%)" stroke-width="1.5"></path>
        <path d="M247.6 681.05L247.6 681.05" stroke="hsl(0, 0%, 100%)" stroke-width="1.5"></path>
        <path d="M247.6 681.05L87.57 508.09" stroke="hsl(0, 0%, 100%)" stroke-width="1.5"></path>
        <path d="M518.77 510.58L518.77 510.58" stroke="hsl(0, 0%, 100%)" stroke-width="1.5"></path>
        <path d="M518.77 510.58L709.96 546.02" stroke="hsl(0, 0%, 100%)" stroke-width="1.5"></path>
        <path d="M518.77 510.58L538.03 704.4" stroke="hsl(0, 0%, 100%)" stroke-width="1.5"></path>
        <path d="M518.77 510.58L673.96 672.2" stroke="hsl(0, 0%, 100%)" stroke-width="1.5"></path>
        <path d="M518.77 510.58L708.54 367.24" stroke="hsl(0, 0%, 100%)" stroke-width="1.5"></path>
        <path d="M518.77 510.58L231.4 501.71" stroke="hsl(0, 0%, 100%)" stroke-width="1.5"></path>
        <path d="M538.03 704.4L538.03 704.4" stroke="hsl(0, 0%, 100%)" stroke-width="1.5"></path>
        <path d="M538.03 704.4L673.96 672.2" stroke="hsl(0, 0%, 100%)" stroke-width="1.5"></path>
        <path d="M538.03 704.4L709.96 546.02" stroke="hsl(0, 0%, 100%)" stroke-width="1.5"></path>
        <path d="M538.03 704.4L247.6 681.05" stroke="hsl(0, 0%, 100%)" stroke-width="1.5"></path>
        <path d="M708.54 367.24L708.54 367.24" stroke="hsl(0, 0%, 100%)" stroke-width="1.5"></path>
        <path d="M708.54 367.24L849.22 377.13" stroke="hsl(0, 0%, 100%)" stroke-width="1.5"></path>
        <path d="M708.54 367.24L709.96 546.02" stroke="hsl(0, 0%, 100%)" stroke-width="1.5"></path>
        <path d="M708.54 367.24L821.31 514.62" stroke="hsl(0, 0%, 100%)" stroke-width="1.5"></path>
        <path d="M708.54 367.24L942.54 404.05" stroke="hsl(0, 0%, 100%)" stroke-width="1.5"></path>
        <path d="M673.96 672.2L673.96 672.2" stroke="hsl(0, 0%, 100%)" stroke-width="1.5"></path>
        <path d="M673.96 672.2L826.09 643.79" stroke="hsl(0, 0%, 100%)" stroke-width="1.5"></path>
        <path d="M673.96 672.2L821.31 514.62" stroke="hsl(0, 0%, 100%)" stroke-width="1.5"></path>
        <path d="M673.96 672.2L956.7 652.13" stroke="hsl(0, 0%, 100%)" stroke-width="1.5"></path>
        <path d="M849.22 377.13L849.22 377.13" stroke="hsl(0, 0%, 100%)" stroke-width="1.5"></path>
        <path d="M849.22 377.13L942.54 404.05" stroke="hsl(0, 0%, 100%)" stroke-width="1.5"></path>
        <path d="M849.22 377.13L821.31 514.62" stroke="hsl(0, 0%, 100%)" stroke-width="1.5"></path>
        <path d="M849.22 377.13L973.03 494.4" stroke="hsl(0, 0%, 100%)" stroke-width="1.5"></path>
        <path d="M849.22 377.13L709.96 546.02" stroke="hsl(0, 0%, 100%)" stroke-width="1.5"></path>
        <path d="M849.22 377.13L1104.69 409.79" stroke="hsl(0, 0%, 100%)" stroke-width="1.5"></path>
        <path d="M821.31 514.62L821.31 514.62" stroke="hsl(0, 0%, 100%)" stroke-width="1.5"></path>
        <path d="M821.31 514.62L826.09 643.79" stroke="hsl(0, 0%, 100%)" stroke-width="1.5"></path>
        <path d="M826.09 643.79L826.09 643.79" stroke="hsl(0, 0%, 100%)" stroke-width="1.5"></path>
        <path d="M826.09 643.79L956.7 652.13" stroke="hsl(0, 0%, 100%)" stroke-width="1.5"></path>
        <path d="M942.54 404.05L942.54 404.05" stroke="hsl(0, 0%, 100%)" stroke-width="1.5"></path>
        <path d="M942.54 404.05L973.03 494.4" stroke="hsl(0, 0%, 100%)" stroke-width="1.5"></path>
        <path d="M942.54 404.05L1104.69 409.79" stroke="hsl(0, 0%, 100%)" stroke-width="1.5"></path>
        <path d="M973.03 494.4L973.03 494.4" stroke="hsl(0, 0%, 100%)" stroke-width="1.5"></path>
        <path d="M973.03 494.4L821.31 514.62" stroke="hsl(0, 0%, 100%)" stroke-width="1.5"></path>
        <path d="M956.7 652.13L956.7 652.13" stroke="hsl(0, 0%, 100%)" stroke-width="1.5"></path>
        <path d="M956.7 652.13L973.03 494.4" stroke="hsl(0, 0%, 100%)" stroke-width="1.5"></path>
        <path d="M956.7 652.13L1117.92 708.88" stroke="hsl(0, 0%, 100%)" stroke-width="1.5"></path>
        <path d="M956.7 652.13L821.31 514.62" stroke="hsl(0, 0%, 100%)" stroke-width="1.5"></path>
        <path d="M956.7 652.13L1156.11 516.2" stroke="hsl(0, 0%, 100%)" stroke-width="1.5"></path>
        <path d="M956.7 652.13L942.54 404.05" stroke="hsl(0, 0%, 100%)" stroke-width="1.5"></path>
        <path d="M1104.13 247.15L1104.13 247.15" stroke="hsl(0, 0%, 100%)" stroke-width="1.5"></path>
        <path d="M1104.13 247.15L1258.04 201.65" stroke="hsl(0, 0%, 100%)" stroke-width="1.5"></path>
        <path d="M1104.13 247.15L1104.69 409.79" stroke="hsl(0, 0%, 100%)" stroke-width="1.5"></path>
        <path d="M1104.13 247.15L942.54 404.05" stroke="hsl(0, 0%, 100%)" stroke-width="1.5"></path>
        <path d="M1104.69 409.79L1104.69 409.79" stroke="hsl(0, 0%, 100%)" stroke-width="1.5"></path>
        <path d="M1104.69 409.79L1156.11 516.2" stroke="hsl(0, 0%, 100%)" stroke-width="1.5"></path>
        <path d="M1104.69 409.79L973.03 494.4" stroke="hsl(0, 0%, 100%)" stroke-width="1.5"></path>
        <path d="M1104.69 409.79L1260.13 490.28" stroke="hsl(0, 0%, 100%)" stroke-width="1.5"></path>
        <path d="M1156.11 516.2L1156.11 516.2" stroke="hsl(0, 0%, 100%)" stroke-width="1.5"></path>
        <path d="M1156.11 516.2L1260.13 490.28" stroke="hsl(0, 0%, 100%)" stroke-width="1.5"></path>
        <path d="M1117.92 708.88L1117.92 708.88" stroke="hsl(0, 0%, 100%)" stroke-width="1.5"></path>
        <path d="M1117.92 708.88L1280.31 695.64" stroke="hsl(0, 0%, 100%)" stroke-width="1.5"></path>
        <path d="M1117.92 708.88L1156.11 516.2" stroke="hsl(0, 0%, 100%)" stroke-width="1.5"></path>
        <path d="M1117.92 708.88L973.03 494.4" stroke="hsl(0, 0%, 100%)" stroke-width="1.5"></path>
        <path d="M1251.05 -81.98L1251.05 -81.98" stroke="hsl(0, 0%, 100%)" stroke-width="1.5"></path>
        <path d="M1258.04 201.65L1258.04 201.65" stroke="hsl(0, 0%, 100%)" stroke-width="1.5"></path>
        <path d="M1258.04 201.65L1310.82 340.72" stroke="hsl(0, 0%, 100%)" stroke-width="1.5"></path>
        <path d="M1258.04 201.65L1424.07 259.74" stroke="hsl(0, 0%, 100%)" stroke-width="1.5"></path>
        <path d="M1258.04 201.65L1389.57 56.59" stroke="hsl(0, 0%, 100%)" stroke-width="1.5"></path>
        <path d="M1258.04 201.65L1398.2 404.54" stroke="hsl(0, 0%, 100%)" stroke-width="1.5"></path>
        <path d="M1310.82 340.72L1310.82 340.72" stroke="hsl(0, 0%, 100%)" stroke-width="1.5"></path>
        <path d="M1310.82 340.72L1398.2 404.54" stroke="hsl(0, 0%, 100%)" stroke-width="1.5"></path>
        <path d="M1310.82 340.72L1424.07 259.74" stroke="hsl(0, 0%, 100%)" stroke-width="1.5"></path>
        <path d="M1310.82 340.72L1260.13 490.28" stroke="hsl(0, 0%, 100%)" stroke-width="1.5"></path>
        <path d="M1260.13 490.28L1260.13 490.28" stroke="hsl(0, 0%, 100%)" stroke-width="1.5"></path>
        <path d="M1280.31 695.64L1280.31 695.64" stroke="hsl(0, 0%, 100%)" stroke-width="1.5"></path>
        <path d="M1280.31 695.64L1411.87 705.64" stroke="hsl(0, 0%, 100%)" stroke-width="1.5"></path>
        <path d="M1424.58 -43.93L1424.58 -43.93" stroke="hsl(0, 0%, 100%)" stroke-width="1.5"></path>
        <path d="M1424.58 -43.93L1389.57 56.59" stroke="hsl(0, 0%, 100%)" stroke-width="1.5"></path>
        <path d="M1424.58 -43.93L1564.37 -47.94" stroke="hsl(0, 0%, 100%)" stroke-width="1.5"></path>
        <path d="M1389.57 56.59L1389.57 56.59" stroke="hsl(0, 0%, 100%)" stroke-width="1.5"></path>
        <path d="M1424.07 259.74L1424.07 259.74" stroke="hsl(0, 0%, 100%)" stroke-width="1.5"></path>
        <path d="M1424.07 259.74L1398.2 404.54" stroke="hsl(0, 0%, 100%)" stroke-width="1.5"></path>
        <path d="M1424.07 259.74L1598.04 220.14" stroke="hsl(0, 0%, 100%)" stroke-width="1.5"></path>
        <path d="M1398.2 404.54L1398.2 404.54" stroke="hsl(0, 0%, 100%)" stroke-width="1.5"></path>
        <path d="M1398.2 404.54L1449.74 550" stroke="hsl(0, 0%, 100%)" stroke-width="1.5"></path>
        <path d="M1398.2 404.54L1260.13 490.28" stroke="hsl(0, 0%, 100%)" stroke-width="1.5"></path>
        <path d="M1449.74 550L1449.74 550" stroke="hsl(0, 0%, 100%)" stroke-width="1.5"></path>
        <path d="M1449.74 550L1577.07 546.53" stroke="hsl(0, 0%, 100%)" stroke-width="1.5"></path>
        <path d="M1449.74 550L1411.87 705.64" stroke="hsl(0, 0%, 100%)" stroke-width="1.5"></path>
        <path d="M1449.74 550L1546.98 708.51" stroke="hsl(0, 0%, 100%)" stroke-width="1.5"></path>
        <path d="M1449.74 550L1260.13 490.28" stroke="hsl(0, 0%, 100%)" stroke-width="1.5"></path>
        <path d="M1449.74 550L1600.71 410.05" stroke="hsl(0, 0%, 100%)" stroke-width="1.5"></path>
        <path d="M1411.87 705.64L1411.87 705.64" stroke="hsl(0, 0%, 100%)" stroke-width="1.5"></path>
        <path d="M1411.87 705.64L1546.98 708.51" stroke="hsl(0, 0%, 100%)" stroke-width="1.5"></path>
        <path d="M1564.37 -47.94L1564.37 -47.94" stroke="hsl(0, 0%, 100%)" stroke-width="1.5"></path>
        <path d="M1564.37 -47.94L1589.08 80.94" stroke="hsl(0, 0%, 100%)" stroke-width="1.5"></path>
        <path d="M1564.37 -47.94L1389.57 56.59" stroke="hsl(0, 0%, 100%)" stroke-width="1.5"></path>
        <path d="M1564.37 -47.94L1598.04 220.14" stroke="hsl(0, 0%, 100%)" stroke-width="1.5"></path>
        <path d="M1564.37 -47.94L1306.52 83.47" stroke="hsl(0, 0%, 100%)" stroke-width="1.5"></path>
        <path d="M1564.37 -47.94L1251.05 -81.98" stroke="hsl(0, 0%, 100%)" stroke-width="1.5"></path>
        <path d="M1589.08 80.94L1589.08 80.94" stroke="hsl(0, 0%, 100%)" stroke-width="1.5"></path>
        <path d="M1598.04 220.14L1598.04 220.14" stroke="hsl(0, 0%, 100%)" stroke-width="1.5"></path>
        <path d="M1598.04 220.14L1589.08 80.94" stroke="hsl(0, 0%, 100%)" stroke-width="1.5"></path>
        <path d="M1598.04 220.14L1600.71 410.05" stroke="hsl(0, 0%, 100%)" stroke-width="1.5"></path>
        <path d="M1598.04 220.14L1389.57 56.59" stroke="hsl(0, 0%, 100%)" stroke-width="1.5"></path>
        <path d="M1600.71 410.05L1600.71 410.05" stroke="hsl(0, 0%, 100%)" stroke-width="1.5"></path>
        <path d="M1600.71 410.05L1577.07 546.53" stroke="hsl(0, 0%, 100%)" stroke-width="1.5"></path>
        <path d="M1600.71 410.05L1398.2 404.54" stroke="hsl(0, 0%, 100%)" stroke-width="1.5"></path>
        <path d="M1600.71 410.05L1424.07 259.74" stroke="hsl(0, 0%, 100%)" stroke-width="1.5"></path>
        <path d="M1577.07 546.53L1577.07 546.53" stroke="hsl(0, 0%, 100%)" stroke-width="1.5"></path>
        <path d="M1577.07 546.53L1546.98 708.51" stroke="hsl(0, 0%, 100%)" stroke-width="1.5"></path>
        <path d="M1577.07 546.53L1398.2 404.54" stroke="hsl(0, 0%, 100%)" stroke-width="1.5"></path>
        <path d="M1546.98 708.51L1546.98 708.51" stroke="hsl(0, 0%, 100%)" stroke-width="1.5"></path>
        <path d="M1546.98 708.51L1280.31 695.64" stroke="hsl(0, 0%, 100%)" stroke-width="1.5"></path>
        <circle r="25" cx="349.58" cy="546" fill="url(#SvgjsRadialGradient1366)"></circle>
        <circle r="25" cx="709.96" cy="546.02" fill="url(#SvgjsRadialGradient1366)"></circle>
        <circle r="25" cx="1306.52" cy="83.47" fill="url(#SvgjsRadialGradient1366)"></circle>
        <circle r="5" cx="-101.15" cy="521.81" fill="#ffffff"></circle>
        <circle r="5" cx="87.57" cy="508.09" fill="#ffffff"></circle>
        <circle r="5" cx="75.23" cy="683.88" fill="#ffffff"></circle>
        <circle r="5" cx="231.4" cy="501.71" fill="#ffffff"></circle>
        <circle r="5" cx="247.6" cy="681.05" fill="#ffffff"></circle>
        <circle r="5" cx="518.77" cy="510.58" fill="#ffffff"></circle>
        <circle r="5" cx="538.03" cy="704.4" fill="#ffffff"></circle>
        <circle r="5" cx="708.54" cy="367.24" fill="#ffffff"></circle>
        <circle r="5" cx="673.96" cy="672.2" fill="#ffffff"></circle>
        <circle r="5" cx="849.22" cy="377.13" fill="#ffffff"></circle>
        <circle r="5" cx="821.31" cy="514.62" fill="#ffffff"></circle>
        <circle r="5" cx="826.09" cy="643.79" fill="#ffffff"></circle>
        <circle r="5" cx="942.54" cy="404.05" fill="#ffffff"></circle>
        <circle r="5" cx="973.03" cy="494.4" fill="#ffffff"></circle>
        <circle r="5" cx="956.7" cy="652.13" fill="#ffffff"></circle>
        <circle r="5" cx="1104.13" cy="247.15" fill="#ffffff"></circle>
        <circle r="5" cx="1104.69" cy="409.79" fill="#ffffff"></circle>
        <circle r="5" cx="1156.11" cy="516.2" fill="#ffffff"></circle>
        <circle r="5" cx="1117.92" cy="708.88" fill="#ffffff"></circle>
        <circle r="5" cx="1251.05" cy="-81.98" fill="#ffffff"></circle>
        <circle r="5" cx="1258.04" cy="201.65" fill="#ffffff"></circle>
        <circle r="5" cx="1310.82" cy="340.72" fill="#ffffff"></circle>
        <circle r="5" cx="1260.13" cy="490.28" fill="#ffffff"></circle>
        <circle r="5" cx="1280.31" cy="695.64" fill="#ffffff"></circle>
        <circle r="5" cx="1424.58" cy="-43.93" fill="#ffffff"></circle>
        <circle r="5" cx="1389.57" cy="56.59" fill="#ffffff"></circle>
        <circle r="5" cx="1424.07" cy="259.74" fill="#ffffff"></circle>
        <circle r="5" cx="1398.2" cy="404.54" fill="#ffffff"></circle>
        <circle r="5" cx="1449.74" cy="550" fill="#ffffff"></circle>
        <circle r="5" cx="1411.87" cy="705.64" fill="#ffffff"></circle>
        <circle r="5" cx="1564.37" cy="-47.94" fill="#ffffff"></circle>
        <circle r="5" cx="1589.08" cy="80.94" fill="#ffffff"></circle>
        <circle r="5" cx="1598.04" cy="220.14" fill="#ffffff"></circle>
        <circle r="5" cx="1600.71" cy="410.05" fill="#ffffff"></circle>
        <circle r="5" cx="1577.07" cy="546.53" fill="#ffffff"></circle>
        <circle r="5" cx="1546.98" cy="708.51" fill="#ffffff"></circle>
    </g>
    <defs>
        <mask id="SvgjsMask1365">
            <rect width="1440" height="566" fill="#ffffff"></rect>
        </mask>
        <radialGradient id="SvgjsRadialGradient1366">
            <stop stop-color="#ffffff" offset="0.1"></stop>
            <stop stop-color="rgba(255, 255, 255, 1)" offset="0.2"></stop>
            <stop stop-color="rgba(255, 255, 255, 0)" offset="1"></stop>
        </radialGradient>
    </defs>
</svg>