<svg width="16" height="20" viewBox="0 0 16 20" fill="none" xmlns="http://www.w3.org/2000/svg">
<path d="M8 8.99999C8.82842 8.99999 9.49999 8.32842 9.49999 7.5C9.49999 6.67157 8.82842 6 8 6C7.17157 6 6.5 6.67157 6.5 7.5C6.5 8.32842 7.17157 8.99999 8 8.99999Z" fill="white"/>
<path d="M7.99997 1.00146e-08C5.89204 -0.000105389 3.86924 0.831756 2.37124 2.31478C0.873228 3.79781 0.0210794 5.81214 0 7.91997C0 13.4 7.04998 19.4999 7.34998 19.7599C7.53111 19.9149 7.76162 20 7.99997 20C8.23833 20 8.46884 19.9149 8.64997 19.7599C8.99997 19.4999 15.9999 13.4 15.9999 7.91997C15.9789 5.81214 15.1267 3.79781 13.6287 2.31478C12.1307 0.831756 10.1079 -0.000105389 7.99997 1.00146e-08ZM7.99997 11C7.30774 11 6.63105 10.7947 6.05548 10.4101C5.47991 10.0255 5.03131 9.4789 4.76641 8.83936C4.5015 8.19982 4.43219 7.49609 4.56724 6.81716C4.70228 6.13823 5.03563 5.51459 5.52511 5.02511C6.01459 4.53563 6.63823 4.20229 7.31716 4.06724C7.99609 3.93219 8.69982 4.0015 9.33936 4.26641C9.9789 4.53131 10.5255 4.97992 10.9101 5.55549C11.2947 6.13106 11.5 6.80774 11.5 7.49998C11.5 8.42823 11.1312 9.31847 10.4748 9.97484C9.81846 10.6312 8.92823 11 7.99997 11Z" fill="white"/>
</svg>
