<svg width="64" height="64" viewBox="0 0 64 64" fill="none" xmlns="http://www.w3.org/2000/svg">
<g clip-path="url(#clip0)">
<path d="M46 26H18C16.895 26 16 24.9558 16 23.6667V7.33333C16 6.04419 16.895 5 18 5H46C47.105 5 48 6.04419 48 7.33333V23.6667C48 24.9558 47.105 26 46 26Z" fill="#2AC28B"/>
<path d="M16.5161 0.5H47.4839C50.0535 0.5 52.1452 2.59167 52.1452 5.16129V26.5953C52.1452 28.1856 51.769 29.7814 51.0574 31.2043L51.0571 31.2047C50.4189 32.4838 50.0806 33.9125 50.0806 35.3402V58.8387C50.0806 61.4083 47.989 63.5 45.4194 63.5H18.5806C16.011 63.5 13.9194 61.4083 13.9194 58.8387V35.3402C13.9194 33.9136 13.5811 32.4838 12.9428 31.2055L12.9428 31.2055C12.2309 29.7804 11.8548 28.1855 11.8548 26.5953V5.16129C11.8548 2.59167 13.9465 0.5 16.5161 0.5ZM50.104 30.7301L50.1041 30.7299C50.7424 29.4517 51.0806 28.0229 51.0806 26.5953V5.16129C51.0806 3.17799 49.4672 1.56452 47.4839 1.56452H16.5161C14.5328 1.56452 12.9194 3.17799 12.9194 5.16129V26.5953C12.9194 28.0229 13.2576 29.4517 13.8959 30.7299L13.896 30.7301C14.6078 32.1541 14.9839 33.7499 14.9839 35.3402V58.8387C14.9839 60.822 16.5973 62.4355 18.5806 62.4355H45.4194C47.4027 62.4355 49.0161 60.822 49.0161 58.8387V35.3402C49.0161 33.7499 49.3922 32.1541 50.104 30.7301Z" fill="#322153" stroke="#322153"/>
<path d="M19.1129 57.8063V58.3063H19.6129H23.7439H24.2444L24.2439 57.8058L24.2419 55.7413L24.2414 55.2418H23.7419H19.6129H19.1129V55.7418V57.8063ZM19.6129 54.1772H23.7419C24.6044 54.1772 25.3064 54.8793 25.3064 55.7418V57.8063C25.3064 58.6687 24.6044 59.3708 23.7419 59.3708H19.6129C18.7504 59.3708 18.0484 58.6687 18.0484 57.8063V55.7418C18.0484 54.8793 18.7504 54.1772 19.6129 54.1772Z" fill="#322153" stroke="#322153"/>
<path d="M19.1129 49.5485V50.0485H19.6129H23.7439H24.2444L24.2439 49.548L24.2419 47.4835L24.2414 46.984H23.7419H19.6129H19.1129V47.484V49.5485ZM19.6129 45.9194H23.7419C24.6044 45.9194 25.3064 46.6215 25.3064 47.484V49.5485C25.3064 50.4109 24.6044 51.113 23.7419 51.113H19.6129C18.7504 51.113 18.0484 50.4109 18.0484 49.5485V47.484C18.0484 46.6215 18.7504 45.9194 19.6129 45.9194Z" fill="#322153" stroke="#322153"/>
<path d="M19.1129 41.2902V41.7902H19.6129H23.7439H24.2444L24.2439 41.2897L24.2419 39.2252L24.2414 38.7256H23.7419H19.6129H19.1129V39.2256V41.2902ZM19.6129 37.6611H23.7419C24.6044 37.6611 25.3064 38.3632 25.3064 39.2256V41.2902C25.3064 42.1526 24.6044 42.8547 23.7419 42.8547H19.6129C18.7504 42.8547 18.0484 42.1526 18.0484 41.2902V39.2256C18.0484 38.3632 18.7504 37.6611 19.6129 37.6611Z" fill="#322153" stroke="#322153"/>
<path d="M29.4355 57.8063V58.3063H29.9355H34.0665H34.567L34.5665 57.8058L34.5645 55.7413L34.564 55.2418H34.0645H29.9355H29.4355V55.7418V57.8063ZM29.9355 54.1772H34.0645C34.927 54.1772 35.629 54.8793 35.629 55.7418V57.8063C35.629 58.6687 34.927 59.3708 34.0645 59.3708H29.9355C29.073 59.3708 28.371 58.6687 28.371 57.8063V55.7418C28.371 54.8793 29.073 54.1772 29.9355 54.1772Z" fill="#322153" stroke="#322153"/>
<path d="M29.4355 49.5485V50.0485H29.9355H34.0665H34.567L34.5665 49.548L34.5645 47.4835L34.564 46.984H34.0645H29.9355H29.4355V47.484V49.5485ZM29.9355 45.9194H34.0645C34.927 45.9194 35.629 46.6215 35.629 47.484V49.5485C35.629 50.4109 34.927 51.113 34.0645 51.113H29.9355C29.073 51.113 28.371 50.4109 28.371 49.5485V47.484C28.371 46.6215 29.073 45.9194 29.9355 45.9194Z" fill="#322153" stroke="#322153"/>
<path d="M29.4355 41.2902V41.7902H29.9355H34.0665H34.567L34.5665 41.2897L34.5645 39.2252L34.564 38.7256H34.0645H29.9355H29.4355V39.2256V41.2902ZM29.9355 37.6611H34.0645C34.927 37.6611 35.629 38.3632 35.629 39.2256V41.2902C35.629 42.1526 34.927 42.8547 34.0645 42.8547H29.9355C29.073 42.8547 28.371 42.1526 28.371 41.2902V39.2256C28.371 38.3632 29.073 37.6611 29.9355 37.6611Z" fill="#322153" stroke="#322153"/>
<path d="M28.9032 29.4033H35.0968C36.5278 29.4033 37.6935 30.5691 37.6935 32.0001C37.6935 33.4311 36.5278 34.5969 35.0968 34.5969H28.9032C27.4722 34.5969 26.3064 33.4311 26.3064 32.0001C26.3064 30.5691 27.4722 29.4033 28.9032 29.4033ZM28.9032 33.5324H35.0968C35.9428 33.5324 36.629 32.8445 36.629 32.0001C36.629 31.1557 35.9428 30.4678 35.0968 30.4678H28.9032C28.0572 30.4678 27.371 31.1557 27.371 32.0001C27.371 32.8445 28.0572 33.5324 28.9032 33.5324Z" fill="#322153" stroke="#322153"/>
<path d="M39.7581 57.8063V58.3063H40.2581H44.3891H44.8896L44.8891 57.8058L44.8871 55.7413L44.8866 55.2418H44.3871H40.2581H39.7581V55.7418V57.8063ZM40.2581 54.1772H44.3871C45.2496 54.1772 45.9516 54.8793 45.9516 55.7418V57.8063C45.9516 58.6687 45.2496 59.3708 44.3871 59.3708H40.2581C39.3956 59.3708 38.6936 58.6687 38.6936 57.8063V55.7418C38.6936 54.8793 39.3956 54.1772 40.2581 54.1772Z" fill="#322153" stroke="#322153"/>
<path d="M39.7581 49.5485V50.0485H40.2581H44.3891H44.8896L44.8891 49.548L44.8871 47.4835L44.8866 46.984H44.3871H40.2581H39.7581V47.484V49.5485ZM40.2581 45.9194H44.3871C45.2496 45.9194 45.9516 46.6215 45.9516 47.484V49.5485C45.9516 50.4109 45.2496 51.113 44.3871 51.113H40.2581C39.3956 51.113 38.6936 50.4109 38.6936 49.5485V47.484C38.6936 46.6215 39.3956 45.9194 40.2581 45.9194Z" fill="#322153" stroke="#322153"/>
<path d="M39.7581 41.2902V41.7902H40.2581H44.3891H44.8896L44.8891 41.2897L44.8871 39.2252L44.8866 38.7256H44.3871H40.2581H39.7581V39.2256V41.2902ZM40.2581 37.6611H44.3871C45.2496 37.6611 45.9516 38.3632 45.9516 39.2256V41.2902C45.9516 42.1526 45.2496 42.8547 44.3871 42.8547H40.2581C39.3956 42.8547 38.6936 42.1526 38.6936 41.2902V39.2256C38.6936 38.3632 39.3956 37.6611 40.2581 37.6611Z" fill="#322153" stroke="#322153"/>
<path d="M42.3226 30.4678H41.8226V30.9678V33.0324V33.5324H42.3226H44.3871H44.8871V33.0324V30.9678V30.4678H44.3871H42.3226ZM45.9516 29.4033V34.5969H40.7581V29.4033H45.9516Z" fill="#322153" stroke="#322153"/>
<path d="M21.6774 33.5324H22.1774V33.0324V30.9678V30.4678H21.6774H19.6129H19.1129V30.9678V33.0324V33.5324H19.6129H21.6774ZM18.0484 29.4033H23.2419V34.5969H18.0484V29.4033Z" fill="#322153" stroke="#322153"/>
</g>
<defs>
<clipPath id="clip0">
<rect width="64" height="64" fill="white"/>
</clipPath>
</defs>
</svg>
